<svg width="1202" height="338" viewBox="0 0 1202 338" fill="none" xmlns="http://www.w3.org/2000/svg">
<path d="M345.736 80.768V164.007H346.477C347.959 162.031 349.852 159.973 352.158 157.832C354.463 155.691 357.18 153.715 360.309 151.904C363.602 150.093 367.389 148.611 371.671 147.458C375.952 146.141 380.81 145.482 386.244 145.482C394.642 145.482 402.381 147.129 409.462 150.422C416.542 153.551 422.635 157.914 427.74 163.513C432.844 169.112 436.796 175.698 439.595 183.273C442.395 190.848 443.795 198.999 443.795 207.726C443.795 216.453 442.395 224.687 439.595 232.426C436.961 240.001 433.091 246.67 427.986 252.433C423.046 258.032 416.954 262.56 409.709 266.018C402.628 269.311 394.559 270.958 385.503 270.958C377.105 270.958 369.201 269.147 361.791 265.524C354.545 261.901 348.864 256.632 344.748 249.716H344.254V267.5H316.096V80.768H345.736ZM413.661 207.726C413.661 203.115 412.92 198.587 411.438 194.141C410.12 189.53 408.062 185.414 405.263 181.791C402.463 178.168 398.923 175.287 394.642 173.146C390.36 170.841 385.338 169.688 379.575 169.688C374.141 169.688 369.283 170.841 365.002 173.146C360.72 175.451 357.015 178.415 353.887 182.038C350.923 185.661 348.617 189.777 346.971 194.388C345.489 198.999 344.748 203.609 344.748 208.22C344.748 212.831 345.489 217.441 346.971 222.052C348.617 226.498 350.923 230.532 353.887 234.155C357.015 237.778 360.72 240.742 365.002 243.047C369.283 245.188 374.141 246.258 379.575 246.258C385.338 246.258 390.36 245.105 394.642 242.8C398.923 240.495 402.463 237.531 405.263 233.908C408.062 230.285 410.12 226.169 411.438 221.558C412.92 216.947 413.661 212.337 413.661 207.726ZM502.523 148.94V274.663C502.523 281.744 501.946 288.413 500.794 294.67C499.641 301.092 497.418 306.608 494.125 311.219C490.996 315.994 486.632 319.782 481.034 322.581C475.6 325.38 468.437 326.78 459.545 326.78C457.075 326.78 454.605 326.615 452.135 326.286C449.665 325.957 447.689 325.627 446.207 325.298L448.677 300.104C449.994 300.433 451.394 300.68 452.876 300.845C454.358 301.01 455.675 301.092 456.828 301.092C460.286 301.092 463.085 300.433 465.226 299.116C467.366 297.799 469.013 295.987 470.166 293.682C471.318 291.377 472.059 288.66 472.389 285.531C472.718 282.567 472.883 279.356 472.883 275.898V148.94H502.523ZM468.684 108.679C468.684 103.904 470.413 99.787 473.871 96.329C477.493 92.7063 482.022 90.895 487.456 90.895C492.89 90.895 497.418 92.624 501.041 96.082C504.828 99.3753 506.722 103.574 506.722 108.679C506.722 113.784 504.828 118.065 501.041 121.523C497.418 124.816 492.89 126.463 487.456 126.463C482.022 126.463 477.493 124.734 473.871 121.276C470.413 117.653 468.684 113.454 468.684 108.679ZM621.966 196.364C621.966 192.577 621.39 188.954 620.237 185.496C619.249 182.038 617.603 178.992 615.297 176.357C612.992 173.722 610.028 171.664 606.405 170.182C602.947 168.535 598.831 167.712 594.055 167.712C585.163 167.712 577.589 170.429 571.331 175.863C565.239 181.132 561.863 187.966 561.204 196.364H621.966ZM651.606 209.702C651.606 211.019 651.606 212.337 651.606 213.654C651.606 214.971 651.524 216.289 651.359 217.606H561.204C561.534 221.887 562.604 225.839 564.415 229.462C566.391 232.92 568.944 235.966 572.072 238.601C575.201 241.071 578.741 243.047 582.693 244.529C586.645 246.011 590.762 246.752 595.043 246.752C602.453 246.752 608.711 245.435 613.815 242.8C618.92 240.001 623.119 236.213 626.412 231.438L646.172 247.246C634.481 263.054 617.52 270.958 595.29 270.958C586.069 270.958 577.589 269.558 569.849 266.759C562.11 263.795 555.359 259.678 549.595 254.409C543.997 249.14 539.551 242.718 536.257 235.143C533.129 227.404 531.564 218.676 531.564 208.961C531.564 199.41 533.129 190.765 536.257 183.026C539.551 175.122 543.997 168.453 549.595 163.019C555.194 157.42 561.781 153.139 569.355 150.175C577.095 147.046 585.41 145.482 594.302 145.482C602.536 145.482 610.11 146.882 617.026 149.681C624.107 152.316 630.2 156.35 635.304 161.784C640.409 167.053 644.361 173.722 647.16 181.791C650.124 189.695 651.606 198.999 651.606 209.702ZM761.328 181.791C759.023 178.498 755.565 175.781 750.954 173.64C746.344 171.335 741.651 170.182 736.875 170.182C731.441 170.182 726.666 171.335 722.549 173.64C718.433 175.781 714.975 178.662 712.175 182.285C709.541 185.908 707.565 190.024 706.247 194.635C704.93 199.081 704.271 203.609 704.271 208.22C704.271 212.831 704.93 217.441 706.247 222.052C707.729 226.498 709.87 230.532 712.669 234.155C715.469 237.778 718.927 240.742 723.043 243.047C727.325 245.188 732.265 246.258 737.863 246.258C742.474 246.258 747.085 245.352 751.695 243.541C756.306 241.73 760.011 239.095 762.81 235.637L781.335 254.409C776.395 259.678 770.056 263.795 762.316 266.759C754.742 269.558 746.508 270.958 737.616 270.958C728.889 270.958 720.573 269.558 712.669 266.759C704.93 263.96 698.096 259.843 692.168 254.409C686.405 248.975 681.794 242.388 678.336 234.649C675.043 226.91 673.396 218.1 673.396 208.22C673.396 198.669 675.043 190.024 678.336 182.285C681.794 174.546 686.405 167.959 692.168 162.525C697.932 157.091 704.601 152.892 712.175 149.928C719.915 146.964 728.148 145.482 736.875 145.482C745.603 145.482 754.001 147.129 762.069 150.422C770.303 153.715 776.807 158.244 781.582 164.007L761.328 181.791ZM783.875 172.652V148.94H804.623V114.607H833.769V148.94H863.409V172.652H833.769V227.733C833.769 233.002 834.675 237.366 836.486 240.824C838.462 244.282 842.743 246.011 849.33 246.011C851.306 246.011 853.447 245.846 855.752 245.517C858.057 245.023 860.116 244.364 861.927 243.541L862.915 266.759C860.28 267.747 857.152 268.488 853.529 268.982C849.906 269.641 846.448 269.97 843.155 269.97C835.251 269.97 828.829 268.9 823.889 266.759C818.949 264.454 814.997 261.407 812.033 257.62C809.234 253.668 807.258 249.222 806.105 244.282C805.117 239.177 804.623 233.743 804.623 227.98V172.652H783.875ZM885.353 148.94H914.993V267.5H885.353V148.94ZM881.154 108.679C881.154 103.904 882.883 99.787 886.341 96.329C889.964 92.7063 894.492 90.895 899.926 90.895C905.36 90.895 909.889 92.624 913.511 96.082C917.299 99.3753 919.192 103.574 919.192 108.679C919.192 113.784 917.299 118.065 913.511 121.523C909.889 124.816 905.36 126.463 899.926 126.463C894.492 126.463 889.964 124.734 886.341 121.276C882.883 117.653 881.154 113.454 881.154 108.679ZM933.167 148.94H965.524L996.646 235.39H997.14L1028.51 148.94H1059.88L1012.7 267.5H981.085L933.167 148.94ZM1161.07 196.364C1161.07 192.577 1160.5 188.954 1159.34 185.496C1158.36 182.038 1156.71 178.992 1154.4 176.357C1152.1 173.722 1149.13 171.664 1145.51 170.182C1142.05 168.535 1137.94 167.712 1133.16 167.712C1124.27 167.712 1116.7 170.429 1110.44 175.863C1104.35 181.132 1100.97 187.966 1100.31 196.364H1161.07ZM1190.71 209.702C1190.71 211.019 1190.71 212.337 1190.71 213.654C1190.71 214.971 1190.63 216.289 1190.47 217.606H1100.31C1100.64 221.887 1101.71 225.839 1103.52 229.462C1105.5 232.92 1108.05 235.966 1111.18 238.601C1114.31 241.071 1117.85 243.047 1121.8 244.529C1125.75 246.011 1129.87 246.752 1134.15 246.752C1141.56 246.752 1147.82 245.435 1152.92 242.8C1158.03 240.001 1162.23 236.213 1165.52 231.438L1185.28 247.246C1173.59 263.054 1156.63 270.958 1134.4 270.958C1125.18 270.958 1116.7 269.558 1108.96 266.759C1101.22 263.795 1094.47 259.678 1088.7 254.409C1083.1 249.14 1078.66 242.718 1075.36 235.143C1072.24 227.404 1070.67 218.676 1070.67 208.961C1070.67 199.41 1072.24 190.765 1075.36 183.026C1078.66 175.122 1083.1 168.453 1088.7 163.019C1094.3 157.42 1100.89 153.139 1108.46 150.175C1116.2 147.046 1124.52 145.482 1133.41 145.482C1141.64 145.482 1149.22 146.882 1156.13 149.681C1163.21 152.316 1169.31 156.35 1174.41 161.784C1179.52 167.053 1183.47 173.722 1186.27 181.791C1189.23 189.695 1190.71 198.999 1190.71 209.702Z" fill="black"/>
<path d="M153.45 148.494L86.1874 147.677L152.633 81.2314L153.45 148.494Z" fill="white"/>
<path d="M187.335 90.8365C208.514 91.6922 229.415 100.186 245.555 116.326C279.734 150.505 279.622 206.032 245.305 240.349C210.988 274.666 155.461 274.778 121.282 240.599C105.142 224.459 96.6482 203.558 95.7925 182.379" stroke="black" stroke-width="27" stroke-linecap="square"/>
<path d="M130.899 178.354C131.203 191.044 136.197 203.643 145.882 213.329C165.878 233.324 198.295 233.326 218.289 213.333C238.282 193.339 238.28 160.922 218.285 140.926C208.6 131.241 196 126.246 183.31 125.943" stroke="black" stroke-width="18" stroke-linecap="square"/>
<circle cx="182.087" cy="177.672" r="18.7211" transform="rotate(-45 182.087 177.672)" fill="black"/>
<path d="M54.032 114.455L119.681 114.725L119.41 50.6972" stroke="black" stroke-width="16"/>
<path d="M95.5053 153.226L158.313 153.358L158.182 90.5495L93.4752 25.8424L94.0155 89.0596L30.7982 88.5193L95.5053 153.226Z" stroke="black" stroke-width="16"/>
<rect x="153.991" y="157.68" width="12.226" height="18.339" transform="rotate(-45 153.991 157.68)" fill="black"/>
</svg>
